# xmcd
#
# Track frame offsets: 
#        150
#        14227
#        26544
#        38205
#        52077
#        66925
#        79015
#        92829
#        107897
#        121582
#        134797
#        146725
#        160317
#        174955
#        188237
#        202410
#        217035
#        230525
#        244825
#        258012
#
# Disc length: 3626 seconds
#
# Revision: 1
# Processed by: cddbd v1.5.2PL0 Copyright (c) Steve Scherf et al.
# Submitted via: ExactAudioCopy v1.0b1
#
DISCID=2e0e2814
DTITLE=Ella Fitzgerald - Best Of (Rhythm 'n' Romance) [CD 1)
DYEAR=1999
DGENRE=Soul
TTITLE0=Rhythm and Romance
TTITLE1=I'll Chase The Blues Away
TTITLE2=Sing Me A Swing Song (And Let Me Dance)
TTITLE3=It's Foxy
TTITLE4=Undecided
TTITLE5=All Over Nothing At All
TTITLE6=Tain't What You Do (It's The Way That You Do It)
TTITLE7=I'm Just A Jitterbug
TTITLE8=My Melancholy Baby
TTITLE9=Got a Pebble In My Shoe
TTITLE10=A-Tisket, A-Tasket
TTITLE11=Just A Simple Melody
TTITLE12=All My Life
TTITLE13=Darktown Strutter's Ball
TTITLE14=Rock It For Me
TTITLE15=It's Wonderful
TTITLE16=MacPherson is Rehearsin'
TTITLE17=Shine
TTITLE18=My Heart Belongs to Daddy
TTITLE19=Untitled
EXTD=
EXTT0=
EXTT1=
EXTT2=
EXTT3=
EXTT4=
EXTT5=
EXTT6=
EXTT7=
EXTT8=
EXTT9=
EXTT10=
EXTT11=
EXTT12=
EXTT13=
EXTT14=
EXTT15=
EXTT16=
EXTT17=
EXTT18=
EXTT19=
PLAYORDER=
